# xmcd
#
# Track frame offsets:
#	150
#	26927
#	73075
#	119366
#	130319
#	143921
#
# Disc length: 2859 seconds
#
# Revision: 0
# Processed by: cddbd v1.5.2PL0 Copyright (c) Steve Scherf et al.
# Submitted via: SynApp - FreeCDDB Version: 2.5
#
DISCID=5c0b2906
DTITLE=Gallagher, Rory - Amsterdam 1970
DYEAR=1970
DGENRE=Blues
TTITLE0=a
TTITLE1=a
TTITLE2=a
TTITLE3=a
TTITLE4=a
TTITLE5=a
EXTD=
EXTT0=
EXTT1=
EXTT2=
EXTT3=
EXTT4=
EXTT5=
PLAYORDER=
